<?xml version="1.0" encoding="utf-8"?>
<!-- Generator: Adobe Illustrator 28.2.0, SVG Export Plug-In . SVG Version: 6.00 Build 0)  -->
<svg version="1.1" id="레이어_1" xmlns="http://www.w3.org/2000/svg" xmlns:xlink="http://www.w3.org/1999/xlink" x="0px"
	 y="0px" viewBox="0 0 370 48.6" style="enable-background:new 0 0 370 48.6;" xml:space="preserve">
<style type="text/css">
	.st0{fill:#FFFFFF;}
</style>
<g>
	<g>
		<g>
			<g>
				<g>
					<path class="st0" d="M89.5,14.1c-5.8,1.9-11.2-3.4-9.3-9.3c0.7-2.1,2.4-3.8,4.5-4.5c5.8-1.9,11.2,3.4,9.3,9.3
						C93.3,11.8,91.6,13.5,89.5,14.1z M88.2,1c-4.3-0.7-8.1,3-7.3,7.3c0.4,2.6,2.6,4.8,5.2,5.2c4.3,0.7,8.1-3,7.3-7.3
						C93,3.6,90.8,1.4,88.2,1z"/>
				</g>
				<g>
					<path class="st0" d="M84.2,1.1l1.1,1.7l0.3,1.7c0,0.1,0,0.1-0.1,0.2l-2,1.7v1.8h0.9l2.1,1.5L85.8,12c-0.1,0.2-0.4,0.3-0.5,0.1
						l-0.5-0.7L83,9.9V8.2l-1.5-0.9l-0.3-1.8l0.5-2.4v0L84.2,1.1z"/>
				</g>
				<g>
					<path class="st0" d="M93.9,6.3l-1,0.9l-2,3.7H90c-0.1,0-0.1-0.1-0.1-0.1V9l-2.1-0.7c-0.4-0.1-0.6-0.4-0.8-0.7l-0.5-1l0.7-1.2
						h3.5c0.1,0,0.1-0.1,0.1-0.2l-0.6-0.8l-2.4-0.6l1-1.9l1.6-0.6l1.1,0.9l2,2.5L93.9,6.3z"/>
				</g>
			</g>
			<g>
				<path class="st0" d="M58.6,34.2c-3.3,0-6.1-2.3-7-5.3h29.2c0.3,0,0.5-0.2,0.6-0.5c0.2-1.3,0.4-2.7,0.4-4.1
					C81.7,11,71,0.2,57.7,0c-1.9,0-3.7,0.2-5.5,0.6C41.3,3,33.1,12.7,33.1,24.3c0,11.5,8,21.2,18.8,23.7c1.8,0.4,3.8,0.6,5.8,0.6
					c10.7-0.1,19.7-7.2,22.8-16.9c0.1-0.4-0.2-0.8-0.6-0.8l-15,0c-0.2,0-0.4,0.1-0.5,0.3C63.2,33,61,34.2,58.6,34.2z M57.7,14.5
					c2.9,0,5.4,2,6.1,4.6H51.5C52.3,16.5,54.7,14.5,57.7,14.5z"/>
			</g>
			<path class="st0" d="M32.5,19.2h5.6l0-18.4c0-0.3-0.2-0.6-0.5-0.6c-1-0.1-2-0.2-2.9-0.2c-7.5,0-11.9,3-14.9,9.8V1.7
				c0-0.3-0.3-0.6-0.6-0.6H0.6C0.3,1.1,0,1.4,0,1.7v45.1c0,0.3,0.3,0.6,0.6,0.6h18.6c0.3,0,0.6-0.3,0.6-0.6v-15
				C19.8,24.8,25.5,19.2,32.5,19.2z"/>
		</g>
	</g>
	<g>
		<polygon class="st0" points="252.7,32.1 244.8,1.2 237.9,1.2 231.1,1.2 223.1,32.1 213.3,1.2 201.5,1.2 217,47.4 230.2,47.4 
			237.9,16.3 245.6,47.4 258.9,47.4 274.3,1.2 262.5,1.2 		"/>
		<path class="st0" d="M190,3.2c-3.7-1.9-7.8-2.8-12.4-2.8c-4.8,0-9.1,1-12.7,2.9c-3.7,1.9-6.6,4.7-8.6,8.3
			c-2.1,3.6-3.1,7.8-3.1,12.6c0,4.7,1,8.9,3.1,12.5c2.1,3.6,5,6.4,8.7,8.4c3.7,2,7.9,3,12.6,3c5.8,0,10.7-1.4,14.7-4.3
			c4-2.9,6.7-6.5,8.1-11H187c-1.9,3.7-5.2,5.6-9.8,5.6c-3.2,0-5.8-0.9-8-2.8c-2.2-1.9-3.4-4.5-3.7-7.8h35.6c0.2-1.3,0.4-2.8,0.4-4.5
			c0-4.5-1-8.5-3-12C196.5,7.8,193.6,5.1,190,3.2z M165.6,19.9c0.5-3.1,1.7-5.6,3.8-7.3c2.1-1.8,4.6-2.6,7.7-2.6
			c3.2,0,5.9,0.9,8.2,2.7c2.2,1.8,3.4,4.2,3.4,7.2H165.6z"/>
		<path class="st0" d="M311.2,26c0,3.7-1,6.5-2.9,8.5c-1.9,2-4.6,3-8,3c-3.3,0-6-1-7.9-3c-1.9-2-2.9-4.8-2.9-8.5V1.2h-12.3v27.1
			c0,4.1,0.8,7.7,2.5,10.6c1.7,3,4,5.2,6.9,6.8c2.9,1.5,6.3,2.3,10.1,2.3c5,0,10.4-1.3,14.5-4.6v4h12.4V1.2h-12.4V26z"/>
		<path class="st0" d="M367.4,26.8c-1.7-1.9-3.6-3.2-5.9-4.1c-2.3-0.9-5.2-1.8-8.7-2.6c-3.5-0.8-6-1.7-7.6-2.5
			c-1.6-0.8-2.5-2-2.5-3.5c0-1.4,0.6-2.5,1.8-3.3c1.2-0.8,2.9-1.2,5.1-1.2c2.4,0,4.3,0.5,5.8,1.6c1.4,1.1,2.2,2.5,2.4,4.4h11.8
			c-0.4-4.7-2.3-8.4-5.7-11.1c-3.5-2.8-8.1-4.1-13.9-4.1c-3.9,0-7.3,0.6-10.2,1.8c-2.9,1.2-5.1,2.9-6.7,5c-1.6,2.1-2.3,4.5-2.3,7
			c0,3.1,0.8,5.6,2.5,7.4c1.7,1.8,3.7,3.2,6,4.1c2.3,0.9,5.3,1.8,8.9,2.6c3.5,0.9,6.1,1.7,7.7,2.5c1.6,0.8,2.4,1.9,2.4,3.4
			c0,1.4-0.7,2.5-2,3.4c-1.3,0.9-3.2,1.3-5.5,1.3c-2.4,0-4.4-0.6-6-1.8c-1.6-1.2-2.5-2.6-2.8-4.4h-12.4c0.2,2.8,1.2,5.4,3,7.8
			c1.8,2.3,4.3,4.2,7.5,5.6c3.2,1.4,6.7,2,10.7,2c3.9,0,7.3-0.6,10.2-1.8c2.9-1.2,5.1-2.9,6.7-5c1.6-2.1,2.3-4.5,2.3-7.2
			C370,31.2,369.1,28.7,367.4,26.8z"/>
		<path class="st0" d="M138.7,2.8c-2.9-1.5-6.3-2.3-10.1-2.3c-5,0-10.4,1.3-14.5,4.6v-4h-12.4v46.2H114V22.6c0-3.7,1-6.5,2.9-8.5
			c1.9-2,4.6-3,8-3c3.3,0,6,1,7.9,3c1.9,2,2.9,4.8,2.9,8.5v24.8h12.3V20.2c0-4.1-0.8-7.7-2.5-10.6C143.9,6.6,141.6,4.4,138.7,2.8z"
			/>
	</g>
</g>
</svg>
